<svg xmlns="http://www.w3.org/2000/svg" width="1600" height="1000" viewBox="0 0 1600 1000" role="img" aria-labelledby="title desc">
  <title id="title">KyuBoard Current Structure</title>
  <desc id="desc">Architecture diagram of KyuBoard board list, board canvas, card types, APIs, and database.</desc>
  <defs>
    <style>
      .bg { fill: #f8fafc; }
      .grid { stroke: #e5e7eb; stroke-width: 1; opacity: .55; }
      .panel { fill: #ffffff; stroke: #cbd5e1; stroke-width: 2; rx: 14; }
      .panel-title { font: 700 28px Arial, sans-serif; fill: #0f172a; }
      .section-title { font: 700 22px Arial, sans-serif; fill: #1e293b; }
      .box { fill: #f8fafc; stroke: #94a3b8; stroke-width: 1.6; rx: 10; }
      .box-blue { fill: #eff6ff; stroke: #60a5fa; }
      .box-green { fill: #ecfdf5; stroke: #34d399; }
      .box-amber { fill: #fffbeb; stroke: #f59e0b; }
      .box-rose { fill: #fff1f2; stroke: #fb7185; }
      .box-purple { fill: #faf5ff; stroke: #a78bfa; }
      .text { font: 500 18px Arial, sans-serif; fill: #0f172a; }
      .small { font: 500 15px Arial, sans-serif; fill: #334155; }
      .muted { font: 500 14px Arial, sans-serif; fill: #64748b; }
      .arrow { stroke: #475569; stroke-width: 2.2; fill: none; marker-end: url(#arrow); }
      .arrow-soft { stroke: #94a3b8; stroke-width: 1.8; fill: none; marker-end: url(#arrowSoft); }
      .label { font: 600 13px Arial, sans-serif; fill: #475569; }
    </style>
    <marker id="arrow" markerWidth="10" markerHeight="10" refX="8" refY="3" orient="auto" markerUnits="strokeWidth">
      <path d="M0,0 L0,6 L9,3 z" fill="#475569"/>
    </marker>
    <marker id="arrowSoft" markerWidth="10" markerHeight="10" refX="8" refY="3" orient="auto" markerUnits="strokeWidth">
      <path d="M0,0 L0,6 L9,3 z" fill="#94a3b8"/>
    </marker>
  </defs>

  <rect class="bg" width="1600" height="1000"/>
  <g>
    <path class="grid" d="M0 50H1600M0 100H1600M0 150H1600M0 200H1600M0 250H1600M0 300H1600M0 350H1600M0 400H1600M0 450H1600M0 500H1600M0 550H1600M0 600H1600M0 650H1600M0 700H1600M0 750H1600M0 800H1600M0 850H1600M0 900H1600M0 950H1600"/>
    <path class="grid" d="M50 0V1000M100 0V1000M150 0V1000M200 0V1000M250 0V1000M300 0V1000M350 0V1000M400 0V1000M450 0V1000M500 0V1000M550 0V1000M600 0V1000M650 0V1000M700 0V1000M750 0V1000M800 0V1000M850 0V1000M900 0V1000M950 0V1000M1000 0V1000M1050 0V1000M1100 0V1000M1150 0V1000M1200 0V1000M1250 0V1000M1300 0V1000M1350 0V1000M1400 0V1000M1450 0V1000M1500 0V1000M1550 0V1000"/>
  </g>

  <text x="60" y="58" class="panel-title">KyuBoard Current Structure</text>
  <text x="60" y="88" class="muted">Spatial board app for rich text memos, images, and Mermaid diagram cards</text>

  <rect x="60" y="130" width="360" height="330" class="panel"/>
  <text x="90" y="175" class="section-title">Board List</text>
  <rect x="95" y="205" width="150" height="48" class="box box-blue"/><text x="122" y="236" class="text">Create</text>
  <rect x="255" y="205" width="130" height="48" class="box box-blue"/><text x="290" y="236" class="text">Select</text>
  <rect x="95" y="270" width="150" height="48" class="box box-amber"/><text x="121" y="301" class="text">Rename</text>
  <rect x="255" y="270" width="130" height="48" class="box box-rose"/><text x="290" y="301" class="text">Delete</text>
  <rect x="115" y="365" width="250" height="56" class="box"/>
  <text x="151" y="389" class="small">Delete Related Data</text>
  <text x="160" y="410" class="muted">memos + mermaids</text>
  <path d="M320 318V365" class="arrow-soft"/>

  <rect x="500" y="130" width="1040" height="600" class="panel"/>
  <text x="530" y="175" class="section-title">Board Canvas</text>
  <rect x="530" y="205" width="970" height="92" class="box box-blue"/>
  <text x="555" y="235" class="text">Board Tools</text>
  <text x="555" y="266" class="small">Create Memo · Upload Image · Create Mermaid · Zoom · Search · Prev/Next · Pan</text>

  <path d="M385 229C445 229 445 251 530 251" class="arrow"/>
  <text x="438" y="223" class="label">open board</text>

  <rect x="535" y="345" width="290" height="300" class="box box-green"/>
  <text x="565" y="385" class="section-title">Memo Card</text>
  <text x="565" y="425" class="small">Rich text editor</text>
  <text x="565" y="455" class="small">Change color</text>
  <text x="565" y="485" class="small">Move / resize</text>
  <text x="565" y="515" class="small">Focus + search target</text>
  <text x="565" y="545" class="small">Delete confirm</text>
  <text x="565" y="575" class="small">Insert / update DB</text>

  <rect x="875" y="345" width="290" height="300" class="box box-amber"/>
  <text x="905" y="385" class="section-title">Image Card</text>
  <text x="905" y="425" class="small">Upload image</text>
  <text x="905" y="455" class="small">Client compression</text>
  <text x="905" y="485" class="small">Cloudinary asset</text>
  <text x="905" y="515" class="small">Move / resize</text>
  <text x="905" y="545" class="small">Delete confirm</text>
  <text x="905" y="575" class="small">Insert / update DB</text>

  <rect x="1215" y="345" width="290" height="300" class="box box-purple"/>
  <text x="1245" y="385" class="section-title">Mermaid Card</text>
  <text x="1245" y="425" class="small">Edit source</text>
  <text x="1245" y="455" class="small">Parse before render</text>
  <text x="1245" y="485" class="small">Render responsive SVG</text>
  <text x="1245" y="515" class="small">Syntax error display</text>
  <text x="1245" y="545" class="small">Move / resize</text>
  <text x="1245" y="575" class="small">Delete confirm + DB</text>

  <path d="M680 297V345" class="arrow-soft"/>
  <path d="M1020 297V345" class="arrow-soft"/>
  <path d="M1360 297V345" class="arrow-soft"/>

  <rect x="60" y="790" width="1480" height="150" class="panel"/>
  <text x="90" y="835" class="section-title">Backend</text>
  <rect x="260" y="820" width="210" height="58" class="box box-blue"/><text x="314" y="855" class="text">API Routes</text>
  <rect x="570" y="820" width="210" height="58" class="box box-green"/><text x="632" y="855" class="text">Database</text>
  <rect x="890" y="820" width="210" height="58" class="box box-amber"/><text x="944" y="855" class="text">Cloudinary</text>
  <rect x="1210" y="820" width="210" height="58" class="box"/><text x="1276" y="855" class="text">Auth</text>

  <text x="270" y="910" class="muted">boards · memos · images · mermaids</text>
  <text x="580" y="910" class="muted">users · boards · memos · images · mermaids</text>
  <text x="910" y="910" class="muted">image files + public_id</text>
  <text x="1235" y="910" class="muted">session cookie + permission</text>

  <path d="M680 645C680 740 365 740 365 820" class="arrow"/>
  <path d="M1020 645C1020 740 365 740 365 820" class="arrow"/>
  <path d="M1360 645C1360 740 365 740 365 820" class="arrow"/>
  <path d="M470 849H570" class="arrow"/>
  <path d="M780 849H890" class="arrow"/>
  <path d="M1210 849H1100" class="arrow-soft"/>
</svg>
